<svg width="18" height="18" viewBox="0 0 18 18" fill="none" xmlns="http://www.w3.org/2000/svg">
<path d="M14.0001 3.99996C13.4917 3.99996 13.0251 3.70829 12.7917 3.25829L12.1917 2.04996C11.8084 1.29163 10.8084 0.666626 9.95839 0.666626H8.05006C7.19172 0.666626 6.19172 1.29163 5.80839 2.04996L5.20839 3.25829C4.97506 3.70829 4.50839 3.99996 4.00006 3.99996C2.19172 3.99996 0.758392 5.52496 0.875058 7.32496L1.30839 14.2083C1.40839 15.925 2.33339 17.3333 4.63339 17.3333H13.3667C15.6667 17.3333 16.5834 15.925 16.6917 14.2083L17.1251 7.32496C17.2417 5.52496 15.8084 3.99996 14.0001 3.99996ZM7.75006 5.04163H10.2501C10.5917 5.04163 10.8751 5.32496 10.8751 5.66663C10.8751 6.00829 10.5917 6.29163 10.2501 6.29163H7.75006C7.40839 6.29163 7.12506 6.00829 7.12506 5.66663C7.12506 5.32496 7.40839 5.04163 7.75006 5.04163ZM9.00006 14.1C7.45006 14.1 6.18339 12.8416 6.18339 11.2833C6.18339 9.72496 7.44172 8.46663 9.00006 8.46663C10.5584 8.46663 11.8167 9.72496 11.8167 11.2833C11.8167 12.8416 10.5501 14.1 9.00006 14.1Z" fill="white"/>
</svg>
