<svg width="40" height="40" viewBox="0 0 40 40" fill="none" xmlns="http://www.w3.org/2000/svg">
<rect width="40" height="40" rx="8" fill="#E55358" fill-opacity="0.1"/>
<mask id="mask0_4098_570" style="mask-type:alpha" maskUnits="userSpaceOnUse" x="8" y="8" width="24" height="24">
<rect x="8" y="8" width="24" height="24" fill="#D9D9D9"/>
</mask>
<g mask="url(#mask0_4098_570)">
<path d="M20 25C20.2833 25 20.521 24.904 20.713 24.712C20.9043 24.5207 21 24.2833 21 24C21 23.7167 20.9043 23.479 20.713 23.287C20.521 23.0957 20.2833 23 20 23C19.7167 23 19.4793 23.0957 19.288 23.287C19.096 23.479 19 23.7167 19 24C19 24.2833 19.096 24.5207 19.288 24.712C19.4793 24.904 19.7167 25 20 25ZM19 21H21V15H19V21ZM20 30C18.6167 30 17.3167 29.7373 16.1 29.212C14.8833 28.6873 13.825 27.975 12.925 27.075C12.025 26.175 11.3127 25.1167 10.788 23.9C10.2627 22.6833 10 21.3833 10 20C10 18.6167 10.2627 17.3167 10.788 16.1C11.3127 14.8833 12.025 13.825 12.925 12.925C13.825 12.025 14.8833 11.3123 16.1 10.787C17.3167 10.2623 18.6167 10 20 10C21.3833 10 22.6833 10.2623 23.9 10.787C25.1167 11.3123 26.175 12.025 27.075 12.925C27.975 13.825 28.6873 14.8833 29.212 16.1C29.7373 17.3167 30 18.6167 30 20C30 21.3833 29.7373 22.6833 29.212 23.9C28.6873 25.1167 27.975 26.175 27.075 27.075C26.175 27.975 25.1167 28.6873 23.9 29.212C22.6833 29.7373 21.3833 30 20 30Z" fill="#E55358"/>
</g>
</svg>
