<svg width="11" height="16" viewBox="0 0 11 16" fill="none" xmlns="http://www.w3.org/2000/svg">
<path d="M9.58698 9.58718C9.26259 9.26279 8.73673 9.2625 8.41199 9.58654L5.1748 12.8167L1.93762 9.58654C1.61288 9.2625 1.08702 9.26279 0.762626 9.58718C0.437981 9.91182 0.437982 10.4382 0.762626 10.7628L5.1748 15.175L9.58698 10.7628C9.91163 10.4382 9.91163 9.91182 9.58698 9.58718Z" fill="#696C70"/>
<path d="M0.762625 6.41282C1.08702 6.73721 1.61288 6.7375 1.93762 6.41346L5.1748 3.18333L8.41198 6.41346C8.73673 6.7375 9.26259 6.73721 9.58698 6.41282C9.91163 6.08818 9.91163 5.56182 9.58698 5.23718L5.1748 0.825001L0.762626 5.23718C0.437982 5.56182 0.437981 6.08818 0.762625 6.41282Z" fill="#696C70"/>
</svg>
