<svg width="110" height="40" viewBox="0 0 110 40" fill="none" xmlns="http://www.w3.org/2000/svg">
<path d="M29.8545 26.0731H8.25454C8.47273 31.1276 10.9455 33.6731 15.6 33.6731C17.2 33.6731 18.6182 33.2367 19.8909 32.4003C21.0909 31.6731 21.8182 30.8003 22.1091 29.7822H29.3455C27.1273 36.5094 22.4727 39.8549 15.3091 39.8549C10.6182 39.8549 6.90909 38.4003 4.14545 35.4912C1.38182 32.5822 0 28.764 0 24.1094C0 19.564 1.41818 15.7822 4.25454 12.764C7.09091 9.78216 10.7636 8.25488 15.3091 8.25488C20.1818 8.25488 23.9273 10.0731 26.6182 13.7094C29.0909 17.0549 30.1455 21.164 29.8545 26.0731ZM8.21818 20.8731H21.6C20.8364 16.6185 18.6545 14.5094 15.0545 14.5094C12.7273 14.5094 10.9455 15.2731 9.70909 16.8367C8.8 17.964 8.29091 19.3094 8.21818 20.8731Z" fill="#00AAE7"/>
<path d="M71.3816 0.145508V9.12733H77.418V15.3819H71.3816V29.4546C71.3816 30.8364 71.5998 31.7819 72.0726 32.2182C72.5453 32.691 73.4544 32.9091 74.8362 32.9091C75.7453 32.9091 76.618 32.8364 77.3816 32.691V39.1273C76.218 39.3091 74.618 39.4182 72.5816 39.4182C66.2907 39.4182 63.1271 37.0546 63.1271 32.291V15.3819H58.1816V9.12733H63.1635V0.145508H71.3816V0.145508Z" fill="#00AAE7"/>
<path d="M78.1094 24.1092C78.1094 19.3092 79.5276 15.491 82.3276 12.6183C85.1276 9.74556 88.873 8.29102 93.5639 8.29102C98.2912 8.29102 102.037 9.74556 104.873 12.6183C107.673 15.491 109.091 19.3092 109.091 24.1092C109.091 28.8728 107.673 32.6547 104.873 35.5637C102.037 38.4365 98.2912 39.891 93.5639 39.891C88.9094 39.891 85.1639 38.4365 82.3276 35.5637C79.5276 32.691 78.1094 28.8728 78.1094 24.1092ZM86.3276 24.1092C86.3276 26.8365 86.8367 29.0183 87.8912 30.6547C89.1276 32.6547 91.0185 33.6728 93.5639 33.6728C98.4366 33.6728 100.873 30.4728 100.873 24.1092C100.873 17.7092 98.4366 14.5092 93.5639 14.5092C88.7276 14.5092 86.3276 17.7092 86.3276 24.1092Z" fill="#00AAE7"/>
<path d="M27.2725 39.0542L38.0361 23.3088L28.1816 9.12695H37.5634L42.8361 16.9451L47.3088 23.127L42.727 29.5997L36.4725 39.0542H27.2725V39.0542Z" fill="#00AAE7"/>
<path d="M47.3091 23.127L57.1637 9.12695H48.0728L42.8728 16.9451L47.3091 23.127L42.7637 29.5997L49.0182 39.0542H58.4L47.3091 23.127Z" fill="#007AB6"/>
<path d="M103.964 10.3999V7.49082H102.873V7.09082H105.491V7.49082H104.4V10.3999H103.964Z" fill="#00AAE7"/>
<path d="M105.928 10.4001V7.09105H106.582L107.382 9.41832C107.455 9.63651 107.491 9.78196 107.528 9.89105C107.564 9.78196 107.637 9.60014 107.71 9.3456L108.51 7.05469H109.091V10.3638H108.655V7.63651L107.71 10.4001H107.31L106.364 7.56378V10.4001H105.928Z" fill="#00AAE7"/>
</svg>
