<svg width="22" height="14" viewBox="0 0 22 14" fill="none" xmlns="http://www.w3.org/2000/svg">
<path d="M2 7C7.4 -1 14.6 -1 20 7C14.6 15 7.4 15 2 7Z" stroke="#696C70" stroke-width="2"/>
<path d="M14 7C14 7.79565 13.6839 8.55871 13.1213 9.12132C12.5587 9.68393 11.7956 10 11 10C10.2044 10 9.44129 9.68393 8.87868 9.12132C8.31607 8.55871 8 7.79565 8 7C8 6.20435 8.31607 5.44129 8.87868 4.87868C9.44129 4.31607 10.2044 4 11 4C11.7956 4 12.5587 4.31607 13.1213 4.87868C13.6839 5.44129 14 6.20435 14 7V7Z" stroke="#696C70" stroke-width="2" stroke-linejoin="round"/>
</svg>
