<svg width="22" height="10" viewBox="0 0 22 10" fill="none" xmlns="http://www.w3.org/2000/svg">
<path d="M2.77158 1.36387L2.13545 0.592288L0.592288 1.86455L1.22842 2.63613L2.77158 1.36387ZM20.7716 2.63613L21.4077 1.86455L19.8646 0.592288L19.2284 1.36387L20.7716 2.63613ZM9.97494 6.53149C10.0978 5.99304 9.76093 5.45694 9.22249 5.33406C8.68404 5.21119 8.14794 5.54807 8.02506 6.08651L9.97494 6.53149ZM7.52506 8.27751C7.40219 8.81596 7.73907 9.35206 8.27751 9.47494C8.81596 9.59781 9.35206 9.26093 9.47494 8.72249L7.52506 8.27751ZM9 6.31L8.80797 7.29139L8.81114 7.29201L9 6.31ZM13 6.31L13.1889 7.29201L13.192 7.29139L13 6.31ZM13.9749 6.08651C13.8521 5.54807 13.316 5.21119 12.7775 5.33406C12.2391 5.45694 11.9022 5.99304 12.0251 6.53149L13.9749 6.08651ZM12.5251 8.72249C12.6479 9.26093 13.184 9.59781 13.7225 9.47494C14.2609 9.35206 14.5978 8.81596 14.4749 8.27751L12.5251 8.72249ZM17.7292 7.13705C18.081 7.56276 18.7113 7.62266 19.137 7.27083C19.5628 6.91899 19.6227 6.28867 19.2708 5.86295L17.7292 7.13705ZM2.72917 5.86295C2.37734 6.28867 2.43724 6.91899 2.86295 7.27083C3.28867 7.62266 3.91899 7.56276 4.27083 7.13705L2.72917 5.86295ZM1.22842 2.63613C2.1513 3.75552 3.23851 4.72857 4.453 5.52214L5.547 3.84786C4.50167 3.16484 3.56591 2.32733 2.77158 1.36387L1.22842 2.63613ZM19.2284 1.36387C18.4341 2.32733 17.4983 3.16484 16.453 3.84786L17.547 5.52214C18.7615 4.72857 19.8487 3.75552 20.7716 2.63613L19.2284 1.36387ZM8.02506 6.08651L7.52506 8.27751L9.47494 8.72249L9.97494 6.53149L8.02506 6.08651ZM8.81114 7.29201C10.2571 7.5701 11.7429 7.5701 13.1889 7.29201L12.8111 5.328C11.6147 5.5581 10.3853 5.5581 9.18886 5.328L8.81114 7.29201ZM9.19203 5.32861C7.8929 5.07441 6.65514 4.57157 5.5468 3.84774L4.4532 5.52227C5.77728 6.38699 7.25597 6.98771 8.80797 7.29139L9.19203 5.32861ZM12.0251 6.53149L12.5251 8.72249L14.4749 8.27751L13.9749 6.08651L12.0251 6.53149ZM13.192 7.29139C14.744 6.98771 16.2227 6.38699 17.5468 5.52227L16.4532 3.84774C15.3449 4.57157 14.1071 5.07441 12.808 5.32861L13.192 7.29139ZM16.2292 5.32205L17.7292 7.13705L19.2708 5.86295L17.7708 4.04795L16.2292 5.32205ZM4.22917 4.04795L2.72917 5.86295L4.27083 7.13705L5.77083 5.32205L4.22917 4.04795Z" fill="#696C70"/>
</svg>
