<svg width="24" height="24" viewBox="0 0 24 24" fill="none" xmlns="http://www.w3.org/2000/svg">
<path d="M19 21.0003H5C4.73478 21.0003 4.48043 20.895 4.29289 20.7075C4.10536 20.5199 4 20.2656 4 20.0003V12.0003H2L11.292 2.70735C11.3849 2.61437 11.4952 2.54061 11.6166 2.49029C11.738 2.43996 11.8681 2.41406 11.9995 2.41406C12.1309 2.41406 12.261 2.43996 12.3824 2.49029C12.5038 2.54061 12.6141 2.61437 12.707 2.70735L22 12.0003H20V20.0003C20 20.2656 19.8946 20.5199 19.7071 20.7075C19.5196 20.895 19.2652 21.0003 19 21.0003ZM10 14.0003H14V19.0003H18V10.8283L12 4.82835L6 10.8283V19.0003H10V14.0003Z" fill="#949699"/>
</svg>
