<svg width="36" height="36" viewBox="0 0 36 36" fill="none" xmlns="http://www.w3.org/2000/svg">
<rect width="36" height="36" rx="6" fill="#292D33" fill-opacity="0.05"/>
<g clip-path="url(#clip0_3944_658)">
<path d="M17 14C17 13.4477 17.4477 13 18 13C18.5523 13 19 13.4477 19 14C19 14.5523 18.5523 15 18 15C17.4477 15 17 14.5523 17 14ZM17 17H19V23H17V17ZM18 8C12.48 8 8 12.48 8 18C8 23.52 12.48 28 18 28C23.52 28 28 23.52 28 18C28 12.48 23.52 8 18 8ZM18 26C13.59 26 10 22.41 10 18C10 13.59 13.59 10 18 10C22.41 10 26 13.59 26 18C26 22.41 22.41 26 18 26Z" fill="#696C70"/>
</g>
<defs>
<clipPath id="clip0_3944_658">
<rect width="24" height="24" fill="white" transform="translate(6 6)"/>
</clipPath>
</defs>
</svg>
