<svg width="22" height="22" viewBox="0 0 22 22" fill="none" xmlns="http://www.w3.org/2000/svg">
<path fill-rule="evenodd" clip-rule="evenodd" d="M13.2525 0.910157H13.291H14.1637H14.2023H14.2023C14.7294 0.91014 15.1842 0.910125 15.5588 0.940728C15.9541 0.973029 16.3473 1.04435 16.7257 1.23714C17.2902 1.52476 17.7491 1.9837 18.0367 2.54819C18.2295 2.92657 18.3009 3.31979 18.3332 3.71513C18.3531 3.95899 18.36 4.23684 18.3624 4.54652H20.091C20.6433 4.54652 21.091 4.99424 21.091 5.54652C21.091 6.09881 20.6433 6.54652 20.091 6.54652H18.3624C18.36 6.85621 18.3531 7.13405 18.3332 7.37791C18.3009 7.77326 18.2295 8.16648 18.0367 8.54486C17.7491 9.10934 17.2902 9.56829 16.7257 9.85591C16.3473 10.0487 15.9541 10.12 15.5588 10.1523C15.1842 10.1829 14.7294 10.1829 14.2023 10.1829H14.2022H14.1637H13.291H13.2525H13.2524C12.7253 10.1829 12.2705 10.1829 11.896 10.1523C11.5006 10.12 11.1074 10.0487 10.729 9.85591C10.1645 9.56829 9.7056 9.10934 9.41798 8.54486C9.22518 8.16648 9.15387 7.77326 9.12156 7.37791C9.09096 7.00334 9.09098 6.54858 9.09099 6.02143L9.091 5.98289V5.11016L9.09099 5.07162C9.09098 4.54447 9.09096 4.0897 9.12156 3.71513C9.15387 3.31979 9.22518 2.92657 9.41798 2.54819C9.7056 1.9837 10.1645 1.52476 10.729 1.23714C11.1074 1.04435 11.5006 0.973029 11.896 0.940728C12.2705 0.910125 12.7253 0.91014 13.2524 0.910157H13.2525ZM16.3637 5.11016V5.54652V5.98288C16.3637 6.55944 16.3629 6.93171 16.3398 7.21505C16.3176 7.48671 16.2799 7.58743 16.2547 7.63688C16.1589 7.82504 16.0059 7.97802 15.8177 8.07389C15.7683 8.09909 15.6676 8.13676 15.3959 8.15896C15.1126 8.18211 14.7403 8.18289 14.1637 8.18289H13.291C12.7144 8.18289 12.3422 8.18211 12.0588 8.15896C11.7872 8.13676 11.6864 8.09909 11.637 8.07389C11.4488 7.97802 11.2959 7.82504 11.2 7.63688C11.1748 7.58743 11.1371 7.48671 11.1149 7.21505C11.0918 6.93171 11.091 6.55944 11.091 5.98289V5.11016C11.091 4.53361 11.0918 4.16133 11.1149 3.878C11.1371 3.60633 11.1748 3.50561 11.2 3.45617C11.2959 3.26801 11.4488 3.11503 11.637 3.01915C11.6864 2.99396 11.7872 2.95628 12.0588 2.93409C12.3422 2.91094 12.7144 2.91016 13.291 2.91016H14.1637C14.7403 2.91016 15.1125 2.91094 15.3959 2.93409C15.6676 2.95628 15.7683 2.99396 15.8177 3.01915C16.0059 3.11503 16.1589 3.26801 16.2547 3.45617C16.2799 3.50561 16.3176 3.60633 16.3398 3.87799C16.3629 4.16133 16.3637 4.53361 16.3637 5.11016ZM1.90918 15.4556C1.35689 15.4556 0.90918 15.9033 0.90918 16.4556C0.90918 17.0079 1.35689 17.4556 1.90918 17.4556H3.63773C3.64015 17.7653 3.6471 18.0431 3.66702 18.287C3.69932 18.6823 3.77064 19.0756 3.96343 19.4539C4.25105 20.0184 4.70999 20.4774 5.27448 20.765C5.65286 20.9578 6.04608 21.0291 6.44142 21.0614C6.81597 21.092 7.2707 21.092 7.79781 21.092H7.79793H7.83645H8.70918H8.7477H8.74782C9.27493 21.092 9.72966 21.092 10.1042 21.0614C10.4996 21.0291 10.8928 20.9578 11.2712 20.765C11.8356 20.4774 12.2946 20.0184 12.5822 19.4539C12.775 19.0756 12.8463 18.6823 12.8786 18.287C12.9092 17.9124 12.9092 17.4577 12.9092 16.9305V16.9305V16.892V16.0192V15.9807V15.9807C12.9092 15.4536 12.9092 14.9988 12.8786 14.6242C12.8463 14.2289 12.775 13.8357 12.5822 13.4573C12.2946 12.8928 11.8356 12.4338 11.2712 12.1462C10.8928 11.9534 10.4996 11.8821 10.1042 11.8498C9.72963 11.8192 9.27487 11.8192 8.74772 11.8192L8.70918 11.8192H7.83645L7.79791 11.8192C7.27076 11.8192 6.816 11.8192 6.44142 11.8498C6.04608 11.8821 5.65286 11.9534 5.27448 12.1462C4.70999 12.4338 4.25105 12.8928 3.96343 13.4573C3.77064 13.8357 3.69932 14.2289 3.66702 14.6242C3.6471 14.8681 3.64015 15.1459 3.63773 15.4556H1.90918ZM5.63645 16.457C5.63645 16.4565 5.63645 16.4561 5.63645 16.4556C5.63645 16.4551 5.63645 16.4547 5.63645 16.4542V16.0193C5.63645 15.4427 5.63723 15.0704 5.66038 14.7871C5.68257 14.5154 5.72025 14.4147 5.74545 14.3653C5.84132 14.1771 5.9943 14.0241 6.18246 13.9282C6.2319 13.903 6.33262 13.8654 6.60429 13.8432C6.88762 13.82 7.2599 13.8192 7.83645 13.8192H8.70918C9.28573 13.8192 9.658 13.82 9.94134 13.8432C10.213 13.8654 10.3137 13.903 10.3632 13.9282C10.5513 14.0241 10.7043 14.1771 10.8002 14.3653C10.8254 14.4147 10.8631 14.5154 10.8853 14.7871C10.9084 15.0704 10.9092 15.4427 10.9092 16.0192V16.892C10.9092 17.4685 10.9084 17.8408 10.8853 18.1241C10.8631 18.3958 10.8254 18.4965 10.8002 18.546C10.7043 18.7341 10.5513 18.8871 10.3632 18.983C10.3137 19.0082 10.213 19.0459 9.94134 19.068C9.65801 19.0912 9.28573 19.092 8.70918 19.092H7.83645C7.2599 19.092 6.88763 19.0912 6.60429 19.068C6.33262 19.0459 6.2319 19.0082 6.18246 18.983C5.9943 18.8871 5.84132 18.7341 5.74545 18.546C5.72025 18.4965 5.68257 18.3958 5.66038 18.1241C5.63723 17.8408 5.63645 17.4685 5.63645 16.892V16.457ZM13.6364 16.4556C13.6364 15.9033 14.0842 15.4556 14.6364 15.4556L20.091 15.4556C20.6433 15.4556 21.091 15.9033 21.091 16.4556C21.091 17.0079 20.6433 17.4556 20.091 17.4556H14.6364C14.0842 17.4556 13.6364 17.0079 13.6364 16.4556ZM1.90918 4.54652C1.35689 4.54652 0.90918 4.99424 0.90918 5.54652C0.90918 6.09881 1.35689 6.54652 1.90918 6.54652H7.36373C7.91601 6.54652 8.36373 6.09881 8.36373 5.54652C8.36373 4.99424 7.91601 4.54652 7.36373 4.54652H1.90918Z" fill="#ADADAD"/>
</svg>
