<svg width="24" height="24" viewBox="0 0 24 24" fill="none" xmlns="http://www.w3.org/2000/svg">
<path d="M18.5 20.0002H5.5C4.84661 20.0082 4.21666 19.757 3.7481 19.3015C3.27953 18.8461 3.01053 18.2235 3 17.5702V7.43019C3.01053 6.77683 3.27953 6.15427 3.7481 5.69883C4.21666 5.24338 4.84661 4.99216 5.5 5.00019H9.1C9.24771 5.00116 9.39336 5.03485 9.5265 5.09882C9.65964 5.1628 9.77695 5.25547 9.87 5.37019L12.47 7.55019H18.47C18.796 7.54222 19.1204 7.59891 19.4244 7.71697C19.7285 7.83503 20.0061 8.01213 20.2413 8.23805C20.4765 8.46396 20.6647 8.73423 20.7949 9.03324C20.9251 9.33225 20.9948 9.65409 21 9.98019V17.5702C20.9895 18.2235 20.7205 18.8461 20.2519 19.3015C19.7833 19.757 19.1534 20.0082 18.5 20.0002ZM5 13.2602V17.5702C5.00377 17.6315 5.0198 17.6915 5.04714 17.7466C5.07448 17.8017 5.11259 17.8507 5.1592 17.8908C5.20581 17.9309 5.25998 17.9612 5.31852 17.98C5.37706 17.9988 5.43876 18.0056 5.5 18.0002H18.5C18.5612 18.0056 18.6229 17.9988 18.6815 17.98C18.74 17.9612 18.7942 17.9309 18.8408 17.8908C18.8874 17.8507 18.9255 17.8017 18.9529 17.7466C18.9802 17.6915 18.9962 17.6315 19 17.5702V9.98019C18.9962 9.91882 18.9802 9.85884 18.9529 9.80378C18.9255 9.74871 18.8874 9.69969 18.8408 9.6596C18.7942 9.61952 18.74 9.58918 18.6815 9.57039C18.6229 9.55159 18.5612 9.54473 18.5 9.55019H12C11.8523 9.54921 11.7066 9.51552 11.5735 9.45155C11.4404 9.38757 11.3231 9.2949 11.23 9.18019L8.63 7.00019H5.5C5.43876 6.99473 5.37706 7.00159 5.31852 7.02039C5.25998 7.03918 5.20581 7.06952 5.1592 7.1096C5.11259 7.14969 5.07448 7.19871 5.04714 7.25378C5.0198 7.30884 5.00377 7.36882 5 7.43019V13.2602Z" fill="#949699"/>
</svg>
