<svg width="36" height="36" viewBox="0 0 36 36" fill="none" xmlns="http://www.w3.org/2000/svg">
<rect width="36" height="36" rx="18" fill="#E55358" fill-opacity="0.1"/>
<path d="M10.8 25.4C10.305 25.4 9.8814 25.2239 9.5292 24.8717C9.1764 24.5189 9 24.095 9 23.6V12.8C9 12.305 9.1764 11.8814 9.5292 11.5292C9.8814 11.1764 10.305 11 10.8 11H15.4575C15.6975 11 15.9264 11.045 16.1442 11.135C16.3614 11.225 16.5525 11.3525 16.7175 11.5175L18 12.8H25.2C25.695 12.8 26.1189 12.9764 26.4717 13.3292C26.8239 13.6814 27 14.105 27 14.6V23.6C27 24.095 26.8239 24.5189 26.4717 24.8717C26.1189 25.2239 25.695 25.4 25.2 25.4H10.8ZM10.8 12.8V23.6H25.2V14.6H17.2575L15.4575 12.8H10.8ZM10.8 12.8V14.6V23.6V12.8Z" fill="#E55358"/>
</svg>
