<svg width="36" height="36" viewBox="0 0 36 36" fill="none" xmlns="http://www.w3.org/2000/svg">
<rect width="36" height="36" rx="6" fill="#292D33" fill-opacity="0.05"/>
<path d="M26.4351 12.9351L23.0649 9.56487C22.7032 9.20319 22.2127 9 21.7012 9H10.9286C9.86344 9 9 9.86344 9 10.9286V25.0714C9 26.1366 9.86344 27 10.9286 27H25.0714C26.1366 27 27 26.1366 27 25.0714V14.2988C27 13.7873 26.7968 13.2968 26.4351 12.9351ZM19.9286 10.9286V14.1429H14.7857V10.9286H19.9286ZM24.8304 25.0714H11.1696C11.1057 25.0714 11.0444 25.046 10.9992 25.0008C10.954 24.9556 10.9286 24.8943 10.9286 24.8304V11.1696C10.9286 11.1057 10.954 11.0444 10.9992 10.9992C11.0444 10.954 11.1057 10.9286 11.1696 10.9286H12.8571V15.1071C12.8571 15.6397 13.2889 16.0714 13.8214 16.0714H20.8929C21.4254 16.0714 21.8571 15.6397 21.8571 15.1071V11.0845L25.0008 14.2282C25.0232 14.2506 25.041 14.2772 25.0531 14.3065C25.0652 14.3357 25.0714 14.3671 25.0714 14.3987V24.8304C25.0714 24.8943 25.046 24.9556 25.0008 25.0008C24.9556 25.046 24.8943 25.0714 24.8304 25.0714ZM18 17.0357C16.0504 17.0357 14.4643 18.6218 14.4643 20.5714C14.4643 22.521 16.0504 24.1071 18 24.1071C19.9496 24.1071 21.5357 22.521 21.5357 20.5714C21.5357 18.6218 19.9496 17.0357 18 17.0357ZM18 22.1786C17.1138 22.1786 16.3929 21.4576 16.3929 20.5714C16.3929 19.6853 17.1138 18.9643 18 18.9643C18.8862 18.9643 19.6071 19.6853 19.6071 20.5714C19.6071 21.4576 18.8862 22.1786 18 22.1786Z" fill="#696C70"/>
</svg>
