<svg width="20" height="18" viewBox="0 0 20 18" fill="none" xmlns="http://www.w3.org/2000/svg">
<path d="M3.00001 18C2.15001 18 1.54601 17.621 1.18801 16.863C0.829339 16.1043 0.916672 15.4 1.45001 14.75L7.00001 8V2H6.00001C5.71667 2 5.47901 1.904 5.28701 1.712C5.09567 1.52067 5.00001 1.28333 5.00001 1C5.00001 0.716667 5.09567 0.479 5.28701 0.287C5.47901 0.0956666 5.71667 0 6.00001 0H14C14.2833 0 14.5207 0.0956666 14.712 0.287C14.904 0.479 15 0.716667 15 1C15 1.28333 14.904 1.52067 14.712 1.712C14.5207 1.904 14.2833 2 14 2H13V8L18.55 14.75C19.0833 15.4 19.1707 16.1043 18.812 16.863C18.454 17.621 17.85 18 17 18H3.00001ZM3.00001 16H17L11 8.7V2H9.00001V8.7L3.00001 16Z" fill="#696C70"/>
</svg>
