<svg width="24" height="24" viewBox="0 0 24 24" fill="none" xmlns="http://www.w3.org/2000/svg">
<path fill-rule="evenodd" clip-rule="evenodd" d="M6.16602 11.166C6.16602 8.40852 8.40852 6.16602 11.166 6.16602C13.9235 6.16602 16.166 8.40852 16.166 11.166C16.166 13.9235 13.9235 16.166 11.166 16.166C8.40852 16.166 6.16602 13.9235 6.16602 11.166ZM19.2558 18.0775L16.4267 15.2475C17.3042 14.1192 17.8333 12.705 17.8333 11.1667C17.8333 7.49083 14.8425 4.5 11.1667 4.5C7.49083 4.5 4.5 7.49083 4.5 11.1667C4.5 14.8425 7.49083 17.8333 11.1667 17.8333C12.705 17.8333 14.1192 17.3042 15.2475 16.4267L18.0775 19.2558C18.24 19.4183 18.4533 19.5 18.6667 19.5C18.88 19.5 19.0933 19.4183 19.2558 19.2558C19.5817 18.93 19.5817 18.4033 19.2558 18.0775Z" fill="#696C70"/>
<mask id="mask0_3967_925" style="mask-type:luminance" maskUnits="userSpaceOnUse" x="4" y="4" width="16" height="16">
<path fill-rule="evenodd" clip-rule="evenodd" d="M6.16602 11.166C6.16602 8.40852 8.40852 6.16602 11.166 6.16602C13.9235 6.16602 16.166 8.40852 16.166 11.166C16.166 13.9235 13.9235 16.166 11.166 16.166C8.40852 16.166 6.16602 13.9235 6.16602 11.166ZM19.2558 18.0775L16.4267 15.2475C17.3042 14.1192 17.8333 12.705 17.8333 11.1667C17.8333 7.49083 14.8425 4.5 11.1667 4.5C7.49083 4.5 4.5 7.49083 4.5 11.1667C4.5 14.8425 7.49083 17.8333 11.1667 17.8333C12.705 17.8333 14.1192 17.3042 15.2475 16.4267L18.0775 19.2558C18.24 19.4183 18.4533 19.5 18.6667 19.5C18.88 19.5 19.0933 19.4183 19.2558 19.2558C19.5817 18.93 19.5817 18.4033 19.2558 18.0775Z" fill="white"/>
</mask>
<g mask="url(#mask0_3967_925)">
</g>
</svg>
