<svg width="16" height="19" viewBox="0 0 16 19" fill="none" xmlns="http://www.w3.org/2000/svg">
<path d="M6.95 13.55L12.6 7.9L11.175 6.475L6.95 10.7L4.85 8.6L3.425 10.025L6.95 13.55ZM8 19C5.68333 18.4167 3.94264 17.8988 2.263 16.012C0.374451 13.8905 0 11.6333 0 9.1V3L8 0L16 3V9.1C16 11.6333 15.6263 13.8905 13.738 16.012C12.0582 17.8992 10.3167 18.4167 8 19ZM8 16.9C9.73333 16.35 11.039 16.0271 12.3 14.6C13.7887 12.9153 14 11.1167 14 9.1V4.375L8 2.125L2 4.375V9.1C2 11.1167 2.21134 12.9153 3.7 14.6C4.96103 16.0271 6.26667 16.35 8 16.9Z" fill="#52AE49"/>
</svg>
