<svg width="12" height="14" viewBox="0 0 12 14" fill="none" xmlns="http://www.w3.org/2000/svg">
<path fill-rule="evenodd" clip-rule="evenodd" d="M3.19826 2.56565C4.11305 2.20532 5.12952 1.91699 6.00006 1.91699C6.8706 1.91699 7.88707 2.20532 8.80186 2.56565C9.43962 2.81686 9.6239 2.89696 9.86712 3.11634C10.0509 3.28213 10.2912 3.63501 10.3781 3.86679C10.4903 4.16617 10.5001 4.44097 10.5001 5.33273L10.5001 5.71515C10.5001 7.29647 10.492 7.93268 10.259 8.62246C10.0851 9.13742 9.61302 9.91965 9.23852 10.3136C8.7291 10.8494 8.35289 11.0527 7.39172 11.5591C7.06994 11.7286 6.77469 11.865 6.52081 11.9575C6.25573 12.054 6.08628 12.0836 6.00006 12.0836C5.91384 12.0836 5.74439 12.054 5.47931 11.9575C5.22543 11.865 4.93018 11.7286 4.60839 11.5591C3.64723 11.0527 3.27102 10.8494 2.7616 10.3136C2.3871 9.91965 1.91507 9.13742 1.74111 8.62246C1.50811 7.93268 1.50006 7.29647 1.50006 5.71515L1.50006 5.33273C1.50006 4.44097 1.5098 4.16617 1.62203 3.86679C1.70892 3.63501 1.94919 3.28213 2.133 3.11634C2.37622 2.89696 2.5605 2.81686 3.19826 2.56565ZM6.00006 0.416993C4.84873 0.416993 3.62432 0.785658 2.64853 1.17002L2.59513 1.19104C2.01535 1.4192 1.58903 1.58697 1.12834 2.00249C0.766123 2.3292 0.388708 2.8835 0.21748 3.34025C-0.000608878 3.922 -0.000339942 4.47638 2.90107e-05 5.23681L5.98263e-05 5.33273L5.98263e-05 5.71515L5.08856e-05 5.82093C-0.000132816 7.26603 -0.000245767 8.15446 0.320006 9.10251C0.563736 9.82403 1.14974 10.7951 1.67447 11.3471C2.36349 12.0719 2.93894 12.375 3.87105 12.8661L3.9092 12.8861C4.266 13.0741 4.62642 13.2432 4.96604 13.3669C5.29446 13.4865 5.65635 13.5836 6.00006 13.5836C6.34377 13.5836 6.70566 13.4865 7.03408 13.3669C7.3737 13.2433 7.73412 13.0741 8.09092 12.8861L8.12906 12.8661C9.06118 12.375 9.63663 12.0719 10.3257 11.3471C10.8504 10.7951 11.4364 9.82403 11.6801 9.10251C12.0004 8.15446 12.0003 7.26602 12.0001 5.82092L12.0001 5.71515L12.0001 5.33273L12.0001 5.23681C12.0005 4.47638 12.0007 3.922 11.7826 3.34025C11.6114 2.8835 11.234 2.3292 10.8718 2.00249C10.4111 1.58697 9.98477 1.4192 9.40499 1.19104L9.35159 1.17002C8.3758 0.785658 7.15139 0.416993 6.00006 0.416993ZM8.57206 6.07232C8.86495 5.77943 8.86495 5.30456 8.57206 5.01166C8.27916 4.71877 7.80429 4.71877 7.5114 5.01166L5.41673 7.10633L4.78039 6.47C4.4875 6.1771 4.01262 6.1771 3.71973 6.47C3.42684 6.76289 3.42684 7.23776 3.71973 7.53066L4.8864 8.69732C5.17929 8.99022 5.65416 8.99022 5.94706 8.69732L8.57206 6.07232Z" fill="#949699"/>
</svg>
