<svg width="40" height="40" viewBox="0 0 40 40" fill="none" xmlns="http://www.w3.org/2000/svg">
<rect width="40" height="40" rx="8" fill="#52AE49" fill-opacity="0.1"/>
<mask id="mask0_4098_983" style="mask-type:alpha" maskUnits="userSpaceOnUse" x="8" y="8" width="24" height="24">
<rect x="8" y="8" width="24" height="24" fill="#D9D9D9"/>
</mask>
<g mask="url(#mask0_4098_983)">
<path d="M18.6 24.6L25.65 17.55L24.25 16.15L18.6 21.8L15.75 18.95L14.35 20.35L18.6 24.6ZM20 30C18.6167 30 17.3167 29.7373 16.1 29.212C14.8833 28.6873 13.825 27.975 12.925 27.075C12.025 26.175 11.3127 25.1167 10.788 23.9C10.2627 22.6833 10 21.3833 10 20C10 18.6167 10.2627 17.3167 10.788 16.1C11.3127 14.8833 12.025 13.825 12.925 12.925C13.825 12.025 14.8833 11.3123 16.1 10.787C17.3167 10.2623 18.6167 10 20 10C21.3833 10 22.6833 10.2623 23.9 10.787C25.1167 11.3123 26.175 12.025 27.075 12.925C27.975 13.825 28.6873 14.8833 29.212 16.1C29.7373 17.3167 30 18.6167 30 20C30 21.3833 29.7373 22.6833 29.212 23.9C28.6873 25.1167 27.975 26.175 27.075 27.075C26.175 27.975 25.1167 28.6873 23.9 29.212C22.6833 29.7373 21.3833 30 20 30Z" fill="#52AE49"/>
</g>
</svg>
