<svg width="40" height="40" viewBox="0 0 40 40" fill="none" xmlns="http://www.w3.org/2000/svg">
<g clip-path="url(#clip0_1_10)">
<path d="M32 0H8C3.58172 0 0 3.58172 0 8V32C0 36.4183 3.58172 40 8 40H32C36.4183 40 40 36.4183 40 32V8C40 3.58172 36.4183 0 32 0Z" fill="#E55358" fill-opacity="0.1"/>
<path d="M19.99 9.968C21.013 9.968 21.96 10.489 22.502 11.327L22.605 11.499L29.705 23.749L29.767 23.875C29.9444 24.3137 30.0155 24.7881 29.9745 25.2594C29.9335 25.7308 29.7816 26.1858 29.5312 26.5873C29.2808 26.9888 28.9389 27.3253 28.5336 27.5694C28.1283 27.8136 27.671 27.9584 27.199 27.992L27 28H13L12.951 27.997L12.839 27.999C12.3936 27.9761 11.9589 27.8541 11.5666 27.6421C11.1743 27.43 10.8341 27.1331 10.571 26.773L10.462 26.613C10.2239 26.2388 10.0716 25.8165 10.0163 25.3764C9.96096 24.9364 10.0039 24.4895 10.142 24.068L10.214 23.874L10.274 23.749L17.366 11.516C17.6254 11.047 18.0057 10.6561 18.4673 10.3839C18.9289 10.1116 19.4551 9.96803 19.991 9.968H19.99ZM20.01 22L19.883 22.007C19.64 22.0359 19.416 22.153 19.2534 22.336C19.0909 22.519 19.0011 22.7552 19.0011 23C19.0011 23.2448 19.0909 23.481 19.2534 23.664C19.416 23.847 19.64 23.9641 19.883 23.993L20 24L20.127 23.993C20.3701 23.9641 20.5941 23.847 20.7566 23.664C20.9191 23.481 21.0089 23.2448 21.0089 23C21.0089 22.7552 20.9191 22.519 20.7566 22.336C20.5941 22.153 20.3701 22.0359 20.127 22.007L20.01 22ZM20 16C19.7551 16 19.5187 16.09 19.3356 16.2527C19.1526 16.4155 19.0357 16.6397 19.007 16.883L19 17V19L19.007 19.117C19.0359 19.36 19.153 19.5841 19.336 19.7466C19.519 19.9091 19.7552 19.9989 20 19.9989C20.2448 19.9989 20.481 19.9091 20.664 19.7466C20.8471 19.5841 20.9641 19.36 20.993 19.117L21 19V17L20.993 16.883C20.9644 16.6397 20.8474 16.4155 20.6644 16.2527C20.4813 16.09 20.2449 16 20 16Z" fill="#E55358"/>
</g>
<defs>
<clipPath id="clip0_1_10">
<rect width="40" height="40" fill="white"/>
</clipPath>
</defs>
</svg>
